<?xml version="1.0" encoding="utf-8"?>
<!-- Generator: Adobe Illustrator 19.0.0, SVG Export Plug-In . SVG Version: 6.00 Build 0)  -->
<svg version="1.1" id="Calque_1" xmlns="http://www.w3.org/2000/svg" xmlns:xlink="http://www.w3.org/1999/xlink" x="0px" y="0px"
	 viewBox="0 0 960 560" style="enable-background:new 0 0 960 560;" xml:space="preserve">
<style type="text/css">
	.st0{fill:#F89A1C;}
	.st1{fill:#FFFFFF;}
	.st2{font-family:'TwCenMT-CondensedExtraBold';}
	.st3{font-size:98.7067px;}
	.st4{clip-path:url(#XMLID_3_);fill:#F89A1C;}
</style>
<circle id="XMLID_628_" class="st0" cx="480.8" cy="280.5" r="246.2"/>
<circle id="XMLID_627_" class="st1" cx="480.8" cy="280.5" r="229.4"/>
<text id="XMLID_626_" transform="matrix(1.0063 0 0 1 333.5894 330.7715)" class="st0 st2 st3">Job</text>
<text id="XMLID_625_" transform="matrix(1.0063 0 0 1 296.2007 380.123)" class="st0 st2 st3">Coaching</text>
<g id="XMLID_573_">
	<path id="XMLID_577_" class="st0" d="M648.3,221.7L634.6,232l-3.5-4.8c-0.7-1-2.1-1.2-3-0.4l-13.4,10c-1,0.7-1.2,2.1-0.4,3l3.5,4.8
		l-11.8,8.8c-1.5,1.1-2.2,2.8-1.5,3.8l6.4,8.7l6.5-4.8l-1.9-2.6l5.2-3.9l1.9,2.6l26-19.3l-1.9-2.6l5.2-3.9l1.9,2.6l5.2-3.9l-6.4-8.7
		C651.7,220.4,649.9,220.6,648.3,221.7L648.3,221.7z M618.2,239.8c-0.5-0.6-0.3-1.5,0.3-2l8.9-6.6c0.6-0.5,1.5-0.3,2,0.3l2,2.7
		l-11.2,8.4L618.2,239.8z M618.2,239.8"/>
	<path id="XMLID_574_" class="st0" d="M656.5,237.8l-5.2,3.9l-1.9-2.6l-26,19.3l1.9,2.6l-5.2,3.9l-1.9-2.6l-6.5,4.8l12.2,16.4
		c0.7,1,2.5,0.8,4.1-0.3l42.4-31.5c1.5-1.1,2.2-2.8,1.5-3.8l-12.2-16.4l-5.2,3.9L656.5,237.8z M656.5,237.8"/>
</g>
<g id="XMLID_563_">
	<g id="XMLID_567_">
		<defs>
			<rect id="XMLID_568_" x="378.6" y="95.3" width="244.4" height="213.1"/>
		</defs>
		<clipPath id="XMLID_3_">
			<use xlink:href="#XMLID_568_"  style="overflow:visible;"/>
		</clipPath>
		<path id="XMLID_570_" class="st4" d="M474.8,112.9c0,9.6-7.8,17.4-17.4,17.4c-9.6,0-17.4-7.8-17.4-17.4c0-9.6,7.8-17.4,17.4-17.4
			C467.1,95.6,474.8,103.4,474.8,112.9L474.8,112.9z M474.8,112.9"/>
		<path id="XMLID_569_" class="st4" d="M621.5,223.7l-19.7-27c-0.5-0.6-1-1.2-1.6-1.6l-29-22c-2.2-1.7-5-2-7.4-1.1
			c-2.1,0.2-1.3,0-22.6,8.2c-2.5,1-4.5,2.7-5.8,4.8l12.4-2.7l-26.7,13.5c-24.7-14.1-25-14.8-28.3-14.4c-1.6-1.2-2.1-1.1-10-3.2
			l-19-4.9L454,145l7.5,11.2l1.3-3.4c2.3-6-0.7-12.8-6.8-15.1c-21.2-8.1-20.4-8-22.6-8.2c-2.1-0.7-4.4-0.6-6.5,0.5l-32.1,17.7
			c-1.5,0.8-2.7,2.1-3.4,3.7l-12.2,27.1c-1.8,4,0,8.6,3.9,10.4c4,1.8,8.6,0,10.4-3.9l11.1-24.7l9.8-5.4l-14.3,38.5
			c0,0-1,9.7-6.1,78.9c-0.3,4.7,2.9,8.8,7.5,9.7c2.1-0.2,4.3-0.7,6.4-1.2c2.4-1.5,4.1-4.1,4.4-7.1l5.4-73.6l1.9,0.7l20.2,31.7v40.5
			c0,2.1,0.7,4,1.8,5.5c4.6,0,9.2,0.1,13.7,0.3c0.2,0,0.4,0,0.6,0c1.3-1.6,2.1-3.6,2.1-5.8v-43.1c0-1.7-0.5-3.4-1.4-4.9l-13.4-21.1
			l4.6-12.1c-3-2.5-4.8-6.1-5.1-8.5l-3.3-32l10.9,31.2c0.9,2.5,2.9,4.4,5.5,5c33.4,8.6,31.3,8.2,33.1,8c0.6,0.4-1.9-1,28,16
			c2.3,1.3,5.1,1.3,7.4,0.2l29.5-14.9l-14.2,11.9l11.4,29.8l-11.9,9.4c-1.6,1.2-2.7,3-3.2,4.9l-11.1,43.4c-1.3,4.9,1.7,9.9,6.6,11.1
			c4.9,1.3,9.9-1.7,11.1-6.6l10.4-40.4l18.9-15l3.3-1.3l-3.5,19.7c-0.4,2.3,0.1,4.6,1.3,6.6l21.5,33.2c2.8,4.2,8.4,5.5,12.7,2.7
			c4.2-2.8,5.5-8.4,2.7-12.7l-19.6-30.2l4.7-26.9L585,203.2l4.8,3.6l19,26.1c2.6,3.5,7.5,4.3,11,1.7
			C623.3,232.2,624.1,227.2,621.5,223.7z"/>
	</g>
	<path id="XMLID_564_" class="st0" d="M557.2,155.4c0,9.6-7.8,17.4-17.4,17.4c-9.6,0-17.4-7.8-17.4-17.4c0-9.6,7.8-17.4,17.4-17.4
		C549.4,138,557.2,145.8,557.2,155.4L557.2,155.4z M557.2,155.4"/>
</g>
<path id="XMLID_2_" class="st0" d="M449,282.8L449,282.8c-5,0-9.1-4.1-9.1-9.1v-6.8c0-5,4.1-9.1,9.1-9.1h0c5,0,9.1,4.1,9.1,9.1v6.8
	C458.2,278.7,454.1,282.8,449,282.8z"/>
</svg>
